<?xml version="1.0" encoding="UTF-8" standalone="no"?>
<!-- Created with Inkscape (http://www.inkscape.org/) -->

<svg
   version="1.1"
   id="svg2"
   width="928.22931"
   height="594.07599"
   viewBox="0 0 928.22931 594.07599"
   sodipodi:docname="Logo principal CONAE 2023 (azul).ai"
   xmlns:inkscape="http://www.inkscape.org/namespaces/inkscape"
   xmlns:sodipodi="http://sodipodi.sourceforge.net/DTD/sodipodi-0.dtd"
   xmlns="http://www.w3.org/2000/svg"
   xmlns:svg="http://www.w3.org/2000/svg">
  <defs
     id="defs6">
    <clipPath
       clipPathUnits="userSpaceOnUse"
       id="clipPath16">
      <path
         d="M 0,445.557 H 696.172 V 0 H 0 Z"
         id="path14" />
    </clipPath>
  </defs>
  <sodipodi:namedview
     id="namedview4"
     pagecolor="#ffffff"
     bordercolor="#000000"
     borderopacity="0.25"
     inkscape:showpageshadow="2"
     inkscape:pageopacity="0.0"
     inkscape:pagecheckerboard="0"
     inkscape:deskcolor="#d1d1d1" />
  <g
     id="g8"
     inkscape:groupmode="layer"
     inkscape:label="Logo principal CONAE 2023 (azul)"
     transform="matrix(1.3333333,0,0,-1.3333333,0,594.076)">
    <g
       id="g10">
      <g
         id="g12"
         clip-path="url(#clipPath16)">
        <g
           id="g18"
           transform="translate(129.1862,209.1761)">
          <path
             d="m 0,0 -2.194,-6.764 c -4.207,-12.968 -12.255,-24.127 -23.278,-32.266 -11.25,-8.306 -24.603,-12.699 -38.628,-12.699 -15.717,0 -30.89,5.678 -42.726,15.989 -11.722,10.211 -19.416,24.258 -21.66,39.551 -0.466,3.129 -0.7,6.339 -0.7,9.542 0,3.087 0.217,6.177 0.649,9.155 2.164,15.392 9.821,29.53 21.568,39.817 11.86,10.385 27.083,16.108 42.864,16.108 14.392,0 28.031,-4.603 39.45,-13.312 11.043,-8.427 19.236,-20.385 23.071,-33.662 l 1.905,-6.603 h -28.542 l -1.338,3.146 c -5.917,13.898 -19.477,22.876 -34.546,22.876 -17.807,0 -33.279,-12.663 -36.798,-30.109 -0.487,-2.416 -0.734,-4.914 -0.734,-7.416 0,-2.591 0.27,-5.19 0.798,-7.722 3.627,-17.268 19.075,-29.805 36.727,-29.805 14.306,0 27.572,8.346 33.813,21.257 L -28.887,0 Z"
             style="fill:#010b23;fill-opacity:1;fill-rule:nonzero;stroke:none"
             id="path20" />
        </g>
        <g
           id="g22"
           transform="translate(213.8768,259.7485)">
          <path
             d="m 0,0 c -20.765,0 -37.661,-16.894 -37.661,-37.66 0,-20.767 16.896,-37.661 37.661,-37.661 20.765,0 37.66,16.894 37.66,37.661 C 37.66,-16.894 20.765,0 0,0 m 64.64,-37.66 c 0,-35.643 -28.998,-64.641 -64.64,-64.641 -35.644,0 -64.641,28.999 -64.641,64.641 0,35.643 28.997,64.64 64.641,64.64 35.642,0 64.64,-28.997 64.64,-64.64"
             style="fill:#010b23;fill-opacity:1;fill-rule:nonzero;stroke:none"
             id="path24" />
        </g>
        <g
           id="g26"
           transform="translate(298.2739,228.8024)">
          <path
             d="M 0,0 27.555,-27.548 V -71.182 H 0 Z M 105.121,58.599 V -71.355 H 98.532 L 79.076,-51.9 46.418,-19.248 27.555,-0.385 0,27.165 v 16.423 l 0.005,12.383 v 3.336 h 6.838 l 70.723,-70.725 v 70.017 z"
             style="fill:#010b23;fill-opacity:1;fill-rule:nonzero;stroke:none"
             id="path28" />
        </g>
        <g
           id="g30"
           transform="translate(565.9543,157.4475)">
          <path
             d="m 0,0 h -34.565 l -1.476,2.663 -25.867,46.751 -12.674,22.894 -0.506,0.913 -17.336,31.12 0.057,0.104 1.384,2.502 11.28,20.374 1.326,2.864 h 6.62 l 1.279,-2.854 11.287,-20.384 L -4.244,7.67 Z M -103.383,84.542 -86.045,53.422 -114.135,2.663 -115.611,0 h -34.563 l 4.242,7.67 z"
             style="fill:#010b23;fill-opacity:1;fill-rule:nonzero;stroke:none"
             id="path32" />
        </g>
        <g
           id="g34"
           transform="translate(607.8124,185.0023)">
          <path
             d="M 0,0 H 88.36 V -27.555 H -27.56 V -5.167 L -27.555,0 V 55.586 L 0,55.413 H 76.798 V 27.859 L 0,27.859 Z M 88.36,102.177 V 74.622 H -27.56 V 97.01 l 0.005,5.167 z"
             style="fill:#010b23;fill-opacity:1;fill-rule:nonzero;stroke:none"
             id="path36" />
        </g>
        <g
           id="g38"
           transform="translate(531.2425,130.2455)">
          <path
             d="m 0,0 c -9.705,-19.161 -22.496,-36.87 -38.125,-52.499 -38.739,-38.739 -90.246,-60.073 -145.031,-60.073 -54.786,0 -106.293,21.334 -145.032,60.073 -15.628,15.629 -28.42,33.338 -38.125,52.499 h -19.545 c 35.138,-76.847 112.68,-130.245 202.702,-130.245 90.021,0 167.563,53.398 202.701,130.245 z"
             style="fill:#1b66ff;fill-opacity:1;fill-rule:nonzero;stroke:none"
             id="path40" />
        </g>
        <g
           id="g42"
           transform="translate(203.0545,367.81)">
          <path
             d="m 0,0 c 38.739,38.739 90.246,60.074 145.032,60.074 54.785,0 106.292,-21.335 145.031,-60.074 15.825,-15.825 28.742,-33.782 38.49,-53.221 H 348.07 C 313.09,24.015 235.337,77.747 145.032,77.747 54.727,77.747 -23.027,24.015 -58.007,-53.221 H -38.49 C -28.742,-33.782 -15.825,-15.825 0,0"
             style="fill:#1b66ff;fill-opacity:1;fill-rule:nonzero;stroke:none"
             id="path44" />
        </g>
      </g>
    </g>
  </g>
</svg>
