<svg xmlns="http://www.w3.org/2000/svg" xmlns:xlink="http://www.w3.org/1999/xlink" width="898" height="197" fill="none" xmlns:v="https://vecta.io/nano"><g fill="#fff"><path d="M588.65 5.2v30.39h-5.95V5.2H571V0h29.34v5.2h-11.69zm12.5 20.55V10.2h5.7v15.05c0 4.55 1.95 6.35 5.15 6.35 3.25 0 5.8-2.45 5.8-7.3V10.2h5.7v25.39h-5.4v-3.3h-.1c-1.6 2.3-4.25 3.9-7.6 3.9-5.75.01-9.25-3.49-9.25-10.44zm44.4-15.65v5.05c-.7-.15-1.35-.2-2-.2-4.55 0-7.05 2.9-7.05 8.2V35.6h-5.7V10.21h5.3v3.75h.1c1.7-2.75 4.1-4.1 7.25-4.1.65-.01 1.45.09 2.1.24zm19.8 25.5l-9.9-12.3h-.1v12.3h-5.7V.01h5.7V20.6h.1l9.25-10.4h6.65l-10.5 11.6 11.7 13.8h-7.2zm9.9-30.15V0h5.7v5.45h-5.7zm0 30.15V10.21h5.7V35.6h-5.7zm32.04-17.5h-5.5c0-3.05-1.8-4.5-4.85-4.5-2.65 0-4.2 1.15-4.2 3 0 2.2 1.75 2.65 5.75 3.65 4.65 1.2 9.6 2.3 9.6 8.35 0 4.6-4.1 7.75-10.65 7.75-6.8 0-10.95-3.05-11-9.1h5.8c0 3.1 1.9 4.85 5.3 4.85 2.9 0 4.6-1.25 4.6-3.15 0-2.6-2-3.1-6.4-4.2-4.25-1.05-8.7-2-8.7-7.7 0-4.5 4-7.6 9.95-7.6 6.46 0 10.25 3 10.3 8.65zm12.21-4.9c1.8-2.45 4.45-3.6 7.3-3.6 5.75 0 9.25 3.5 9.25 10.45V35.6h-5.7V20.55c0-4.55-1.95-6.35-5.15-6.35-3.25 0-5.8 2.45-5.8 7.3v14.1h-5.7V.01h5.7v13.2h.1v-.01zM598.34 70.95h-6.05c0-4.5-2.55-6.8-7.15-6.8-3.85 0-6.25 1.85-6.25 4.75 0 3.25 2.45 4.25 8.15 5.65 6.7 1.65 12.3 3.4 12.3 10.9 0 6.6-5.3 10.9-13.3 10.9-8.6 0-13.85-4.35-13.85-12.5h6.15c0 5.1 2.8 7.55 7.75 7.55 4.45 0 7.05-2.05 7.05-5.4 0-3.6-2.6-4.4-8.05-5.75-6.75-1.7-12.35-3.35-12.35-10.8 0-6.05 4.95-10.2 12.5-10.2 8.66.01 13.1 4.05 13.1 11.7zm30.6 11.95c0 8.1-4.1 13.3-10.55 13.3-3.15 0-6-1.45-7.45-3.9h-.1v12.55h-5.7V70.21h5.55v3.5h.1c1.5-2.6 4.35-4.15 7.55-4.15 6.45-.01 10.6 5.24 10.6 13.34zm-18.39 0c0 5.5 2.45 8.9 6.15 8.9 3.85 0 6.3-3.5 6.3-8.9s-2.45-8.9-6.3-8.9c-3.7 0-6.15 3.35-6.15 8.9zm43.9-3.5v9.5c0 3 .25 5.1.65 6.7h-5.15c-.25-1.1-.35-2.35-.35-3.55h-.1c-1.85 2.7-4.7 4.1-8.55 4.1-5.3 0-8.6-3.2-8.6-7.55 0-4.15 2.45-6.85 9.75-8 2.05-.35 5.05-.65 6.85-.75v-1c0-3.75-2.05-5.25-4.95-5.25-3.15 0-4.85 1.75-5 4.45h-5.6c.25-4.8 3.75-8.6 10.6-8.6 6.7 0 10.45 3.3 10.45 9.95zm-5.5 4.15c-1.7.1-4.15.35-5.85.65-3.65.6-5 1.7-5 4 0 2.25 1.6 3.75 4.5 3.75 1.75 0 3.45-.55 4.6-1.7 1.35-1.4 1.75-2.75 1.75-5.45v-1.25z"/><use xlink:href="#B"/><path d="M705.54 87.95h5.85c-.95 4.55-5.05 8.4-11.7 8.4-7.75 0-12.3-5.55-12.3-13.75 0-7.5 4.5-13.15 12.2-13.15 5.8 0 10 3.35 11.4 8.65.5 1.6.7 3.5.7 5.95h-18.65c.2 5.75 3.1 8.1 6.65 8.1 3.25 0 5.35-1.75 5.85-4.2zm-12.39-7.65H706c-.4-4.45-3-6.65-6.4-6.65-3.45 0-5.95 2.25-6.45 6.65zm41.75 5.65l-3.3 9.65h-6.3l12.95-35.59h8.05l12.95 35.59h-6.3l-3.3-9.65H734.9zm11.99-8l-4.6-14.15h-.1l-4.55 14.15-.95 2.8h11.15l-.95-2.8zm32.25-4.2h.1V70.2h5.4v23.79c0 7.6-4.4 11.25-11.55 11.25-6.8 0-10.65-3.05-10.9-8.05h5.7c.15 2.45 2.1 3.85 5.3 3.85 3.8 0 5.9-1.95 5.9-7.25v-2.5h-.1c-1.85 2.7-4.2 4-7.35 4-6.45 0-10.55-5-10.55-12.9 0-7.85 4.15-12.9 10.65-12.9 3.16.01 5.51 1.36 7.4 4.26zm-12.09 8.65c0 5 2.35 8.2 6 8.2 3.85 0 6.25-3.2 6.25-8.2 0-4.95-2.4-8.15-6.25-8.15-3.65 0-6 3.15-6 8.15zm41.29 5.55h5.85c-.95 4.55-5.05 8.4-11.7 8.4-7.75 0-12.3-5.55-12.3-13.75 0-7.5 4.5-13.15 12.2-13.15 5.8 0 10 3.35 11.4 8.65.5 1.6.7 3.5.7 5.95h-18.65c.2 5.75 3.1 8.1 6.65 8.1 3.25 0 5.35-1.75 5.85-4.2zm-12.39-7.65h12.84c-.4-4.45-3-6.65-6.4-6.65-3.44 0-5.94 2.25-6.44 6.65zm46.44-.25V95.6h-5.7V80.55c0-4.55-1.95-6.35-5.15-6.35-3.25 0-5.8 2.45-5.8 7.3v14.1h-5.7V70.21h5.4v3.3h.1c1.6-2.3 4.25-3.9 7.6-3.9 5.75-.01 9.25 3.49 9.25 10.44z"/><use xlink:href="#B" x="188"/><path d="M887.49 96.7c-2.4 6.45-5.2 8.4-11.1 8.4-1.1 0-2.1-.15-2.85-.35v-4.65c.65.2 1.5.35 2.4.35 3.1 0 4.45-1.15 5.65-4.65l-9.3-25.59h6.1l6.35 18.9h.1l6.55-18.9h5.9l-9.8 26.49z"/></g><g fill="#e1251b"><path d="M321.22 113.98c-3.75 25.68-21.14 40.67-48.13 40.67-30.63 0-48.91-19.3-48.91-51.61V.59H0v47.22h59.19v142.08h59.03V47.81h46.94v61.18c0 55.54 39.34 87.39 107.94 87.39 58.28 0 95.43-23 105.29-63.98l-55.87-17.99-.39-.13-.91-.3z"/><path d="M430.38 0H321.22v113.98l59.55-19.35V32.55l36.49 50.22 59.04-19.18L430.38 0z"/><path d="M499.14 94.65L476.3 63.59l-36.49 50.22 54.85 75.49h73.25l-68.77-94.65z"/></g><defs ><path id="B" d="M683.49 79.4h-5.95c-.25-3.3-2.4-5.45-5.5-5.45-4 0-6.35 3.4-6.35 8.95s2.35 8.95 6.35 8.95c3.1 0 5.2-2.45 5.45-5.9h6c-.5 6.15-4.9 10.4-11.45 10.4-7.5 0-12.35-5.2-12.35-13.45s4.85-13.45 12.35-13.45c6.5 0 10.95 4.15 11.45 9.95z"/></defs></svg>