<svg width="472" height="332" viewBox="0 0 472 332" fill="none" xmlns="http://www.w3.org/2000/svg">
<path d="M471.788 299.373H0C28.7598 295.216 55.6362 287.749 79.6556 277.605C144.536 250.231 188.592 203.365 192.748 149.569H192.824C194.124 124.01 212.907 103.741 235.894 103.741C258.881 103.741 277.665 124.01 278.964 149.569H279.04C283.196 203.365 327.252 250.231 392.132 277.605C416.152 287.749 443.028 295.216 471.788 299.373Z" fill="white"/>
<g clip-path="url(#clip0_2011_2698)">
<path d="M259.604 40.4076C259.604 56.5736 249.133 69.6765 236.214 69.6765C235.952 69.6765 235.693 69.6716 235.434 69.657C222.877 69.1465 212.824 56.2478 212.824 40.4076C212.824 24.5674 226.761 1.33703 235.48 0.0583433C235.73 0.0194478 235.976 0 236.214 0C246.066 0 259.604 24.2416 259.604 40.4076V40.4076Z" fill="#FD8982"/>
<path d="M236.549 0.286983C236.188 0.184882 235.831 0.107091 235.478 0.0584717C230.059 0.850968 222.633 10.1664 217.781 20.8773C220.954 16.1612 224.735 11.8001 228.003 6.95757C230.236 3.55907 233.212 1.33716 236.549 0.286983V0.286983Z" fill="#BD514A"/>
<path d="M236.551 0.286865C233.218 1.33704 230.237 3.55895 228.004 6.95745C224.733 11.7999 220.956 16.1611 217.783 20.8772C214.823 27.4068 212.824 34.4566 212.824 40.4076C212.824 56.2478 222.877 69.1466 235.434 69.6571C247.987 69.1466 258.045 56.2478 258.045 40.4076C258.045 24.5674 246.152 3.01928 236.551 0.286865Z" fill="#FC6C63"/>
<path d="M303.328 141.609C301.041 145.63 299.108 147.55 297.326 147.968C296.403 148.187 295.516 147.998 294.646 147.487H294.642C293.262 146.68 291.912 145.076 290.479 142.995C286.251 136.869 281.292 126.649 272.688 120.819C272.048 120.387 271.391 119.978 270.747 119.609L266.494 81.5543L266.457 81.2334C266.925 81.1264 267.397 81.0292 267.869 80.9368C269.232 80.6888 270.611 80.5187 271.991 80.4409C278.985 80.0276 286.099 81.846 292.429 86.1439C309.362 97.6327 314.239 122.448 303.328 141.609V141.609Z" fill="white"/>
<path opacity="0.36" d="M301.939 142.227C300.231 145.226 298.72 147.059 297.325 147.968C296.401 148.187 295.514 147.998 294.644 147.487H294.64C293.261 146.68 291.91 145.076 290.478 142.995C286.249 136.869 281.291 126.649 272.687 120.819C272.046 120.387 271.389 119.978 270.745 119.609L266.492 81.5543C267.851 81.3064 269.226 81.1362 270.601 81.0584C277.596 80.6452 284.71 82.4635 291.04 86.7615C307.973 98.2502 312.85 123.066 301.939 142.227V142.227Z" fill="#EFD8D6"/>
<path opacity="0.36" d="M291.309 141.609C291.029 142.1 290.754 142.562 290.479 142.995C286.251 136.869 281.292 126.649 272.688 120.819C272.048 120.387 271.391 119.978 270.747 119.609L266.457 81.2333C266.925 81.1264 267.397 81.0291 267.869 80.9368C272.208 81.7487 276.461 83.465 280.41 86.1439C297.343 97.6327 302.22 122.448 291.309 141.609Z" fill="#EFD8D6"/>
<path d="M206.034 81.2335L201.749 119.609C201.1 119.978 200.447 120.387 199.807 120.819C188.695 128.351 183.662 143.204 178.433 147.098C175.699 149.14 172.907 148.182 169.168 141.609C158.257 122.448 163.133 97.6328 180.062 86.144C186.564 81.7294 193.888 79.9305 201.063 80.4799C202.734 80.6014 204.392 80.8543 206.034 81.2335Z" fill="white"/>
<path opacity="0.36" d="M185.07 86.1439C168.137 97.6327 163.26 122.448 174.171 141.609C175.735 144.361 177.135 146.126 178.432 147.098C181.076 145.129 183.666 140.369 187.016 135.162C189.015 116.448 192.151 97.9342 198.908 80.718C194.121 81.4133 189.417 83.1927 185.07 86.1391V86.1439Z" fill="#EFD8D6"/>
<path opacity="0.79" d="M201.063 80.4799C200.344 80.5333 199.622 80.616 198.908 80.723C192.155 97.9391 189.019 116.449 187.016 135.167C190.3 130.067 194.306 124.549 199.807 120.824C200.447 120.392 201.1 119.983 201.748 119.614L206.034 81.2383C204.392 80.8591 202.734 80.6063 201.063 80.4847V80.4799Z" fill="#EFD8D6"/>
<path d="M236.292 16.8564C224.786 16.8564 214.741 26.0893 211.884 39.2894L190.719 137.126H282.551L260.651 39.0658C257.728 25.9726 247.729 16.8564 236.292 16.8564V16.8564Z" fill="white"/>
<path opacity="0.36" d="M231.752 25.5009C223.657 25.219 216.383 33.2801 214.081 45.0897L197.004 132.6L261.612 134.851L248.394 46.0815C246.629 34.2281 239.798 25.7829 231.752 25.5009V25.5009Z" fill="#EFD8D6"/>
<path opacity="0.36" d="M227.714 30.7178C221.487 30.1441 215.506 37.9232 213.179 49.6308L195.934 136.373L245.628 140.972L239.578 51.8722C238.769 39.975 233.896 31.2916 227.71 30.7227L227.714 30.7178Z" fill="#EFD8D6"/>
<path d="M236.212 201.231C261.72 201.231 282.397 176.74 282.397 146.529C282.397 116.318 261.72 91.8275 236.212 91.8275C210.705 91.8275 190.027 116.318 190.027 146.529C190.027 176.74 210.705 201.231 236.212 201.231Z" fill="#3A1643"/>
<path d="M236.638 193.987C261.699 193.987 282.014 171.753 282.014 144.327C282.014 116.9 261.699 94.6667 236.638 94.6667C211.577 94.6667 191.262 116.9 191.262 144.327C191.262 171.753 211.577 193.987 236.638 193.987Z" fill="#FC6C63"/>
<path d="M236.215 213.862C263.584 213.862 285.77 187.584 285.77 155.169C285.77 122.754 263.584 96.4756 236.215 96.4756C208.847 96.4756 186.66 122.754 186.66 155.169C186.66 187.584 208.847 213.862 236.215 213.862Z" fill="white"/>
<path d="M236.213 210.265C261.904 210.265 282.73 185.597 282.73 155.169C282.73 124.741 261.904 100.073 236.213 100.073C210.522 100.073 189.695 124.741 189.695 155.169C189.695 185.597 210.522 210.265 236.213 210.265Z" fill="#0085FF"/>
<path opacity="0.36" d="M232.569 64.7465C229.35 61.2848 225.003 55.8394 224.855 51.488C224.634 44.55 229.207 38.7108 235.056 38.458C240.914 38.1955 245.836 43.5971 246.058 50.5399C246.205 54.8914 242.207 60.7063 239.219 64.4548C237.437 66.6816 234.49 66.808 232.569 64.7417V64.7465Z" fill="#EFD8D6"/>
</g>
<path d="M455.951 291.45H16.8633C43.6297 287.583 68.6432 280.637 90.9979 271.2C152.299 246.984 194.345 203.432 198.178 154.02H198.245C199.395 131.456 216.038 113.561 236.407 113.561C256.776 113.561 273.419 131.456 274.57 154.02H274.637C278.469 203.432 320.516 246.984 381.817 271.2C404.171 280.637 429.185 287.583 455.951 291.45Z" fill="#F4F9FF"/>
<path opacity="0.25" d="M236.16 160.436C255.285 160.436 270.788 142.231 270.788 119.774C270.788 97.317 255.285 79.1121 236.16 79.1121C217.035 79.1121 201.531 97.317 201.531 119.774C201.531 142.231 217.035 160.436 236.16 160.436Z" fill="url(#paint0_radial_2011_2698)"/>
<path d="M257.069 116.62C257.069 116.706 257.069 116.797 257.065 116.883C256.916 106.683 247.87 98.4578 236.738 98.4578C225.605 98.4578 216.56 106.683 216.41 116.883C216.406 116.797 216.406 116.706 216.406 116.62C216.406 106.301 225.508 97.933 236.738 97.933C247.967 97.933 257.069 106.301 257.069 116.62Z" fill="white"/>
<path d="M257.069 117.145C257.069 127.469 247.967 135.833 236.738 135.833C225.508 135.833 216.406 127.469 216.406 117.145C216.406 117.059 216.406 116.969 216.41 116.883C216.56 106.683 225.605 98.4578 236.738 98.4578C247.87 98.4578 256.916 106.683 257.065 116.883C257.069 116.969 257.069 117.059 257.069 117.145V117.145Z" fill="#3A1643"/>
<path opacity="0.7" d="M255.887 122.207C255.887 134.134 239.096 188.66 236.739 188.66C234.64 188.66 217.59 134.134 217.59 122.207C217.59 110.28 226.163 100.61 236.739 100.61C247.314 100.61 255.887 110.28 255.887 122.207Z" fill="#F29271"/>
<path opacity="0.8" d="M256.462 118.2C257.701 129.406 246.694 182.735 244.353 183.031C242.27 183.293 219.666 134.196 218.427 122.989C217.188 111.783 224.695 101.626 235.198 100.299C245.701 98.9778 255.223 106.988 256.462 118.195V118.2Z" fill="#FFA92C"/>
<path opacity="0.8" d="M255.337 121.506C253.944 131.529 230.969 174.72 228.636 174.352C226.561 174.023 216.058 125.537 217.451 115.513C218.843 105.49 228.454 98.7058 238.917 100.361C249.379 102.017 256.733 111.482 255.341 121.506H255.337Z" fill="#FF8A3B"/>
<path d="M227.337 56.5611C231.962 56.5611 235.8 52.3109 236.08 46.8638C236.08 46.6562 236.07 46.4364 236.07 46.2287C236.07 46.1677 236.07 46.1066 236.07 46.0455C231.269 46.3264 227.399 50.8942 227.172 56.5611C227.224 56.5611 227.286 56.5611 227.337 56.5611Z" fill="#0085FF"/>
<path d="M237.011 46.0455C237.011 46.1066 237.011 46.1677 237.011 46.2287C237.011 46.4486 237.011 46.6684 237 46.876C237.279 52.3109 241.118 56.5733 245.742 56.5733C245.794 56.5733 245.856 56.5733 245.907 56.5733C245.68 50.8942 241.811 46.3264 237.011 46.0455ZM241.366 52.2132C240.797 52.2132 240.332 51.6636 240.332 50.9919C240.332 50.3202 240.797 49.7706 241.366 49.7706C241.935 49.7706 242.401 50.3202 242.401 50.9919C242.401 51.6636 241.935 52.2132 241.366 52.2132Z" fill="#0085FF"/>
<path d="M236.07 68.1638C236.07 68.1026 236.07 68.0417 236.07 67.9806C236.07 67.7608 236.08 67.541 236.08 67.3333C235.8 61.8984 231.962 57.6482 227.337 57.6482C227.286 57.6482 227.224 57.6482 227.172 57.6482C227.399 63.3151 231.269 67.8828 236.07 68.1638Z" fill="#0085FF"/>
<path d="M245.742 57.6482C241.118 57.6482 237.279 61.8984 237 67.3455C237.011 67.5531 237.011 67.7729 237.011 67.9927C237.011 68.0539 237.011 68.115 237.011 68.1759C241.811 67.8952 245.68 63.3273 245.907 57.6604C245.856 57.6482 245.794 57.6482 245.742 57.6482Z" fill="#0085FF"/>
<rect x="64" y="282" width="333" height="50" fill="#F4F9FF"/>
<defs>
<radialGradient id="paint0_radial_2011_2698" cx="0" cy="0" r="1" gradientUnits="userSpaceOnUse" gradientTransform="translate(236.16 119.774) scale(34.5155 40.7955)">
<stop stop-color="#FB5C25" stop-opacity="0.8"/>
<stop offset="0.44" stop-color="#FA5E27" stop-opacity="0.79"/>
<stop offset="0.6" stop-color="#FA6532" stop-opacity="0.77"/>
<stop offset="0.71" stop-color="#F87244" stop-opacity="0.72"/>
<stop offset="0.8" stop-color="#F7845E" stop-opacity="0.66"/>
<stop offset="0.88" stop-color="#F49C80" stop-opacity="0.57"/>
<stop offset="0.94" stop-color="#F2B8A9" stop-opacity="0.47"/>
<stop offset="1" stop-color="#EFD8D6" stop-opacity="0.36"/>
</radialGradient>
<clipPath id="clip0_2011_2698">
<rect width="145.8" height="213.862" fill="white" transform="translate(163.348)"/>
</clipPath>
</defs>
</svg>
